<?xml version="1.0" encoding="UTF-8"?>
<!DOCTYPE svg PUBLIC "-//W3C//DTD SVG 1.1//EN" "http://www.w3.org/Graphics/SVG/1.1/DTD/svg11.dtd">
<svg version="1.1" xmlns="http://www.w3.org/2000/svg" xmlns:xlink="http://www.w3.org/1999/xlink" width="600" height="180"  xml:space="preserve">
    <defs>
        <linearGradient id="gradient17eed1c0-bezier30" x1="55.6" y1="2" x2="55.6" y2="172.8" gradientUnits="userSpaceOnUse" >
            <stop offset="0" stop-color="rgb(55, 73, 79)" stop-opacity="1" />
            <stop offset="0.5" stop-color="rgb(110, 126, 125)" stop-opacity="1" />
            <stop offset="1" stop-color="rgb(55, 73, 79)" stop-opacity="1" />
        </linearGradient>
        <linearGradient id="gradient12a6efa0-bezier44" x1="56.06" y1="129.25" x2="56.06" y2="164.17" gradientUnits="userSpaceOnUse" >
            <stop offset="0" stop-color="rgb(93, 111, 113)" stop-opacity="1" />
            <stop offset="1" stop-color="rgb(55, 73, 79)" stop-opacity="1" />
        </linearGradient>
    </defs>
    <g id="group">
        <path id="bezier" stroke="none" fill="rgb(55, 73, 79)" d="M 146.16,167.6 L 138.07,153.5 132.06,160.81 132.06,167.62 130.16,167.62 130.16,142.45 132.06,142.45 132.06,158.17 144.78,142.45 147.09,142.46 139.32,152.07 148.38,167.62 146.16,167.6 Z M 146.16,167.6" />
        <path id="bezier2" stroke="none" fill="rgb(55, 73, 79)" d="M 165.83,167.62 L 165.83,157.06 C 165.83,153.66 164.26,151.97 161.14,151.97 159.63,151.97 158.46,152.42 157.61,153.31 156.77,154.21 156.34,155.46 156.34,157.06 L 156.34,167.62 154.55,167.62 154.55,150.6 156.34,150.6 156.34,152.6 C 157.61,151.12 159.28,150.38 161.35,150.38 163.23,150.38 164.75,150.94 165.9,152.04 167.05,153.15 167.62,154.72 167.62,156.74 L 167.62,167.62 165.83,167.62 Z M 165.83,167.62" />
        <path id="bezier3" stroke="none" fill="rgb(55, 73, 79)" d="M 186.94,165.93 C 185.69,167.17 184.12,167.79 182.22,167.79 180.31,167.79 178.84,167.28 177.81,166.24 176.78,165.21 176.11,164.12 175.82,162.97 175.52,161.82 175.38,160.52 175.38,159.09 175.38,157.59 175.52,156.28 175.8,155.18 176.08,154.07 176.75,153 177.79,151.95 178.84,150.91 180.31,150.38 182.22,150.38 184.12,150.38 185.59,150.9 186.62,151.93 187.66,152.97 188.32,154.06 188.61,155.21 188.91,156.36 189.05,157.66 189.05,159.09 189.05,160.59 188.91,161.9 188.63,163 188.35,164.11 187.79,165.08 186.94,165.93 Z M 185.74,153.41 C 184.78,152.45 183.6,151.97 182.22,151.97 180.83,151.97 179.77,152.33 179.04,153.06 178.31,153.79 177.82,154.57 177.56,155.39 177.31,156.21 177.18,157.45 177.18,159.09 177.18,160.73 177.3,161.96 177.55,162.77 177.79,163.59 178.29,164.36 179.03,165.1 179.77,165.84 180.83,166.21 182.22,166.21 183.6,166.21 184.66,165.85 185.39,165.12 186.12,164.39 186.61,163.61 186.87,162.79 187.13,161.97 187.26,160.73 187.26,159.09 187.26,157.45 187.13,156.22 186.89,155.41 186.64,154.59 186.26,153.93 185.74,153.41 Z M 185.74,153.41" />
        <path id="bezier4" stroke="none" fill="rgb(55, 73, 79)" d="M 212.77,167.62 L 210.92,167.64 206.13,153.42 201.38,167.64 199.52,167.62 194.09,150.6 196.06,150.6 200.4,165.51 205.23,150.6 207.03,150.6 211.89,165.51 216.24,150.6 218.2,150.6 212.77,167.62 Z M 212.77,167.62" />
        <path id="bezier5" stroke="none" fill="rgb(55, 73, 79)" d="M 228.25,167.62 C 226.91,167.62 225.89,167.22 225.2,166.44 224.51,165.65 224.16,164.57 224.16,163.2 L 224.16,142.45 225.96,142.45 225.96,163.17 C 225.96,164.18 226.14,164.91 226.52,165.36 226.9,165.81 227.58,166.03 228.56,166.03 L 229.8,166.03 229.8,167.62 228.25,167.62 Z M 228.25,167.62" />
        <path id="bezier6" stroke="none" fill="rgb(55, 73, 79)" d="M 237.27,159.48 C 237.27,161.65 237.74,163.32 238.68,164.47 239.62,165.63 241,166.21 242.81,166.21 244.57,166.21 246.13,165.52 247.49,164.13 L 248.83,165.19 C 247.94,166.08 247.03,166.74 246.1,167.16 245.17,167.58 244.04,167.8 242.7,167.8 240.35,167.8 238.56,167.05 237.32,165.56 236.09,164.07 235.47,161.91 235.47,159.09 235.47,156.34 236.07,154.2 237.27,152.68 238.47,151.15 240.14,150.38 242.27,150.38 244.39,150.38 246.05,151.12 247.26,152.59 248.47,154.06 249.08,156.08 249.08,158.67 L 249.08,159.48 237.27,159.48 237.27,159.48 Z M 246.68,154.82 C 246.31,153.93 245.73,153.23 244.94,152.73 244.15,152.22 243.26,151.97 242.28,151.97 241.29,151.97 240.4,152.22 239.62,152.73 238.83,153.23 238.28,153.85 237.98,154.59 237.67,155.34 237.48,155.9 237.39,156.29 237.31,156.68 237.27,157.26 237.27,158.03 L 247.28,158.03 C 247.28,157.3 247.24,156.73 247.16,156.32 247.08,155.91 246.92,155.41 246.68,154.82 Z M 246.68,154.82" />
        <path id="bezier7" stroke="none" fill="rgb(55, 73, 79)" d="M 267.41,167.62 L 267.41,165.43 C 266.73,166.34 265.98,166.96 265.17,167.29 264.36,167.63 263.43,167.79 262.37,167.79 261.47,167.79 260.68,167.66 259.97,167.41 259.27,167.15 258.6,166.7 257.96,166.07 257.33,165.43 256.85,164.48 256.52,163.21 256.19,161.94 256.02,160.57 256.02,159.09 256.02,157.51 256.18,156.12 256.5,154.91 256.82,153.7 257.29,152.78 257.93,152.15 258.56,151.51 259.24,151.06 259.97,150.79 260.7,150.52 261.5,150.38 262.37,150.38 263.43,150.38 264.36,150.55 265.17,150.89 265.98,151.24 266.73,151.86 267.41,152.78 L 267.41,142.45 269.21,142.45 269.21,167.62 267.41,167.62 Z M 262.61,151.97 C 260.73,151.97 259.46,152.62 258.81,153.91 258.15,155.2 257.82,156.93 257.82,159.09 257.82,161.25 258.14,162.98 258.79,164.27 259.44,165.56 260.71,166.21 262.61,166.21 264.49,166.21 265.76,165.56 266.42,164.27 267.08,162.98 267.41,161.25 267.41,159.09 267.41,156.93 267.08,155.2 266.44,153.91 265.79,152.62 264.52,151.97 262.61,151.97 Z M 262.61,151.97" />
        <path id="bezier8" stroke="none" fill="rgb(55, 73, 79)" d="M 283.41,175.9 C 282.19,175.9 281.18,175.74 280.4,175.41 279.61,175.08 278.75,174.49 277.81,173.65 L 279,172.45 C 279.75,173.11 280.43,173.58 281.03,173.88 281.63,174.17 282.42,174.32 283.41,174.32 285.12,174.32 286.41,173.78 287.27,172.69 288.13,171.61 288.56,170.19 288.56,168.43 L 288.56,165.4 C 287.87,166.31 287.13,166.94 286.32,167.28 285.51,167.62 284.57,167.8 283.51,167.8 282.62,167.8 281.82,167.67 281.12,167.41 280.41,167.15 279.74,166.7 279.11,166.07 278.48,165.43 277.99,164.48 277.66,163.21 277.33,161.94 277.17,160.57 277.17,159.09 277.17,157.52 277.33,156.12 277.65,154.91 277.96,153.7 278.44,152.78 279.07,152.15 279.71,151.51 280.39,151.06 281.12,150.79 281.85,150.52 282.64,150.38 283.51,150.38 284.57,150.38 285.51,150.56 286.32,150.9 287.13,151.24 287.87,151.87 288.56,152.78 L 288.56,150.6 290.35,150.6 290.35,168.54 C 290.35,170.74 289.74,172.52 288.52,173.88 287.3,175.23 285.6,175.9 283.41,175.9 Z M 283.76,151.97 C 281.88,151.97 280.61,152.62 279.96,153.91 279.3,155.2 278.97,156.93 278.97,159.09 278.97,161.25 279.29,162.98 279.94,164.27 280.58,165.56 281.86,166.21 283.76,166.21 285.64,166.21 286.91,165.56 287.57,164.27 288.23,162.98 288.56,161.25 288.56,159.09 288.56,156.93 288.23,155.2 287.59,153.91 286.94,152.62 285.67,151.97 283.76,151.97 Z M 283.76,151.97" />
        <path id="bezier9" stroke="none" fill="rgb(55, 73, 79)" d="M 300.12,159.48 C 300.12,161.65 300.59,163.32 301.53,164.47 302.47,165.63 303.84,166.21 305.65,166.21 307.42,166.21 308.98,165.52 310.34,164.13 L 311.68,165.19 C 310.79,166.08 309.88,166.74 308.95,167.16 308.02,167.58 306.89,167.8 305.55,167.8 303.2,167.8 301.41,167.05 300.17,165.56 298.94,164.07 298.32,161.91 298.32,159.09 298.32,156.34 298.92,154.2 300.12,152.68 301.32,151.15 302.99,150.38 305.12,150.38 307.24,150.38 308.9,151.12 310.11,152.59 311.32,154.06 311.93,156.08 311.93,158.67 L 311.93,159.48 300.12,159.48 300.12,159.48 Z M 309.53,154.82 C 309.15,153.93 308.57,153.23 307.78,152.73 307,152.22 306.11,151.97 305.12,151.97 304.14,151.97 303.25,152.22 302.46,152.73 301.68,153.23 301.13,153.85 300.82,154.59 300.52,155.34 300.32,155.9 300.24,156.29 300.16,156.68 300.12,157.26 300.12,158.03 L 310.13,158.03 C 310.13,157.3 310.09,156.73 310,156.32 309.92,155.91 309.76,155.41 309.53,154.82 Z M 309.53,154.82" />
        <path id="bezier10" stroke="none" fill="rgb(55, 73, 79)" d="M 337.69,167.79 C 335.81,167.79 334.25,167.54 333,167.04 331.76,166.53 330.54,165.68 329.34,164.48 L 330.68,163.14 C 331.78,164.25 332.86,165.02 333.92,165.45 334.98,165.89 336.27,166.1 337.79,166.1 339.79,166.1 341.37,165.65 342.52,164.73 343.67,163.81 344.25,162.54 344.25,160.92 344.25,159.39 343.9,158.32 343.21,157.71 342.51,157.1 341.94,156.72 341.5,156.55 341.05,156.39 340.3,156.22 339.24,156.06 L 336.31,155.6 C 334.41,155.32 332.86,154.66 331.66,153.64 330.47,152.62 329.87,151.12 329.87,149.15 329.87,147.06 330.56,145.39 331.95,144.14 333.33,142.9 335.24,142.28 337.65,142.28 339.18,142.28 340.49,142.48 341.57,142.89 342.65,143.3 343.75,144 344.88,144.99 L 343.65,146.22 C 342.75,145.41 341.87,144.82 340.99,144.43 340.1,144.05 338.96,143.86 337.55,143.86 335.74,143.86 334.32,144.32 333.28,145.24 332.25,146.16 331.73,147.43 331.73,149.05 331.73,150.51 332.19,151.62 333.11,152.39 334.02,153.15 335.25,153.65 336.77,153.89 L 339.49,154.31 C 340.71,154.5 341.61,154.7 342.2,154.91 342.79,155.12 343.59,155.65 344.62,156.5 345.64,157.35 346.15,158.79 346.15,160.84 346.15,162.96 345.39,164.65 343.88,165.91 342.36,167.16 340.3,167.79 337.69,167.79 Z M 337.69,167.79" />
        <path id="bezier11" stroke="none" fill="rgb(55, 73, 79)" d="M 364.34,165.93 C 363.09,167.17 361.52,167.79 359.61,167.79 357.71,167.79 356.24,167.28 355.21,166.24 354.17,165.21 353.51,164.12 353.22,162.97 352.92,161.82 352.78,160.52 352.78,159.09 352.78,157.59 352.92,156.28 353.2,155.18 353.48,154.07 354.14,153 355.19,151.95 356.24,150.91 357.71,150.38 359.61,150.38 361.52,150.38 362.99,150.9 364.02,151.93 365.05,152.97 365.72,154.06 366.01,155.21 366.31,156.36 366.45,157.66 366.45,159.09 366.45,160.59 366.31,161.9 366.03,163 365.75,164.11 365.18,165.08 364.34,165.93 Z M 363.14,153.41 C 362.17,152.45 361,151.97 359.61,151.97 358.23,151.97 357.17,152.33 356.44,153.06 355.71,153.79 355.22,154.57 354.96,155.39 354.7,156.21 354.57,157.45 354.57,159.09 354.57,160.73 354.7,161.96 354.94,162.77 355.19,163.59 355.68,164.36 356.42,165.1 357.16,165.84 358.23,166.21 359.61,166.21 361,166.21 362.06,165.85 362.79,165.12 363.51,164.39 364.01,163.61 364.26,162.79 364.52,161.97 364.65,160.73 364.65,159.09 364.65,157.45 364.53,156.22 364.28,155.41 364.04,154.59 363.65,153.93 363.14,153.41 Z M 363.14,153.41" />
        <path id="bezier12" stroke="none" fill="rgb(55, 73, 79)" d="M 378.44,167.62 C 377.1,167.62 376.08,167.22 375.39,166.44 374.69,165.65 374.35,164.57 374.35,163.2 L 374.35,142.45 376.14,142.45 376.14,163.17 C 376.14,164.18 376.33,164.91 376.71,165.36 377.08,165.81 377.77,166.03 378.75,166.03 L 379.99,166.03 379.99,167.62 378.44,167.62 Z M 378.44,167.62" />
        <path id="bezier13" stroke="none" fill="rgb(55, 73, 79)" d="M 397.71,167.62 L 397.71,165.61 C 396.44,167.07 394.78,167.8 392.71,167.8 390.83,167.8 389.31,167.24 388.16,166.14 387.01,165.03 386.44,163.47 386.44,161.45 L 386.44,150.6 388.23,150.6 388.23,161.13 C 388.23,164.52 389.8,166.21 392.92,166.21 394.42,166.21 395.6,165.76 396.44,164.87 397.29,163.98 397.71,162.73 397.71,161.13 L 397.71,150.6 399.51,150.6 399.51,167.62 397.71,167.62 Z M 397.71,167.62" />
        <path id="bezier14" stroke="none" fill="rgb(55, 73, 79)" d="M 412.98,167.62 C 411.68,167.62 410.68,167.21 409.96,166.4 409.25,165.59 408.89,164.51 408.89,163.17 L 408.89,151.94 406.56,151.94 406.56,150.6 408.89,150.6 408.89,145.17 410.69,145.17 410.69,150.6 414.53,150.6 414.53,151.94 410.69,151.94 410.69,163.21 C 410.69,165.09 411.56,166.03 413.3,166.03 L 414.53,166.03 414.53,167.62 412.98,167.62 Z M 412.98,167.62" />
        <path id="bezier15" stroke="none" fill="rgb(55, 73, 79)" d="M 421.82,144.67 L 421.82,142.45 424.05,142.45 424.05,144.67 421.82,144.67 Z M 422.04,167.62 L 422.04,150.56 423.83,150.56 423.83,167.62 422.04,167.62 Z M 422.04,167.62" />
        <path id="bezier16" stroke="none" fill="rgb(55, 73, 79)" d="M 443.36,165.93 C 442.11,167.17 440.54,167.79 438.64,167.79 436.74,167.79 435.26,167.28 434.23,166.24 433.2,165.21 432.53,164.12 432.24,162.97 431.95,161.82 431.8,160.52 431.8,159.09 431.8,157.59 431.94,156.28 432.22,155.18 432.5,154.07 433.17,153 434.21,151.95 435.26,150.91 436.74,150.38 438.64,150.38 440.54,150.38 442.01,150.9 443.04,151.93 444.08,152.97 444.74,154.06 445.04,155.21 445.33,156.36 445.48,157.66 445.48,159.09 445.48,160.59 445.33,161.9 445.05,163 444.77,164.11 444.21,165.08 443.36,165.93 Z M 442.16,153.41 C 441.2,152.45 440.02,151.97 438.64,151.97 437.25,151.97 436.19,152.33 435.47,153.06 434.74,153.79 434.24,154.57 433.99,155.39 433.73,156.21 433.6,157.45 433.6,159.09 433.6,160.73 433.72,161.96 433.97,162.77 434.21,163.59 434.71,164.36 435.45,165.1 436.19,165.84 437.25,166.21 438.64,166.21 440.02,166.21 441.08,165.85 441.81,165.12 442.54,164.39 443.03,163.61 443.29,162.79 443.55,161.97 443.68,160.73 443.68,159.09 443.68,157.45 443.56,156.22 443.31,155.41 443.06,154.59 442.68,153.93 442.16,153.41 Z M 442.16,153.41" />
        <path id="bezier17" stroke="none" fill="rgb(55, 73, 79)" d="M 464.72,167.62 L 464.72,157.06 C 464.72,153.66 463.16,151.97 460.03,151.97 458.53,151.97 457.35,152.42 456.51,153.31 455.66,154.21 455.24,155.46 455.24,157.06 L 455.24,167.62 453.44,167.62 453.44,150.6 455.24,150.6 455.24,152.6 C 456.51,151.12 458.17,150.38 460.24,150.38 462.12,150.38 463.64,150.94 464.79,152.04 465.94,153.15 466.52,154.72 466.52,156.74 L 466.52,167.62 464.72,167.62 Z M 464.72,167.62" />
        <path id="bezier18" stroke="none" fill="rgb(55, 73, 79)" d="M 480.48,167.79 C 477.58,167.79 475.29,166.98 473.6,165.36 L 474.85,164.13 C 476.16,165.52 478,166.21 480.39,166.21 483.78,166.21 485.48,165.06 485.48,162.75 485.48,161.06 484.4,160.11 482.25,159.9 L 479.44,159.65 C 477.77,159.65 476.51,159.25 475.64,158.46 474.78,157.66 474.34,156.58 474.34,155.21 474.34,153.73 474.89,152.56 476,151.69 477.1,150.82 478.58,150.38 480.44,150.38 481.62,150.38 482.71,150.54 483.72,150.84 484.73,151.15 485.62,151.59 486.4,152.18 L 485.2,153.38 C 483.89,152.44 482.31,151.97 480.46,151.97 479.08,151.97 478.01,152.25 477.26,152.81 476.51,153.38 476.14,154.19 476.14,155.24 476.14,156.93 477.29,157.88 479.58,158.09 L 482.32,158.34 C 483.92,158.48 485.14,158.86 485.99,159.5 486.85,160.13 487.28,161.22 487.28,162.77 487.28,164.29 486.66,165.51 485.43,166.43 484.19,167.34 482.54,167.79 480.48,167.79 Z M 480.48,167.79" />
    </g>
    <path id="bezier19" stroke="none" fill="rgb(55, 73, 79)" d="M 146,125.14 L 128.35,125.14 128.35,67.46 C 136.13,67.1 141.58,66.91 144.7,66.91 150.69,66.91 155.37,68.19 158.75,70.75 162.12,73.31 163.81,76.97 163.81,81.72 163.81,86.29 161.39,89.91 156.56,92.56 163.73,95.05 167.31,100.2 167.31,108 167.31,113.25 165.33,117.42 161.37,120.51 157.4,123.59 152.28,125.14 146,125.14 Z M 138.6,75.66 L 138.6,89.49 C 140.17,89.59 141.83,89.64 143.56,89.64 150.23,89.64 153.57,87.14 153.57,82.12 153.57,77.68 150.53,75.46 144.47,75.46 142.86,75.46 140.91,75.53 138.6,75.66 Z M 138.6,97.48 L 138.6,116.55 C 140.67,116.73 142.35,116.82 143.64,116.82 148.21,116.82 151.52,116.05 153.59,114.5 155.65,112.95 156.68,110.38 156.68,106.78 156.68,103.5 155.72,101.11 153.8,99.61 151.88,98.11 148.53,97.36 143.76,97.36 142.76,97.36 141.04,97.4 138.6,97.48 Z M 138.6,97.48" />
    <path id="bezier20" stroke="none" fill="rgb(55, 73, 79)" d="M 208.11,125.14 L 192.7,101.3 C 191.15,101.28 188.99,101.19 186.2,101.03 L 186.2,125.14 175.57,125.14 175.57,67.43 C 176.15,67.43 178.37,67.33 182.23,67.13 186.09,66.93 189.2,66.84 191.56,66.84 206.22,66.84 213.54,72.51 213.54,83.85 213.54,87.27 212.53,90.38 210.51,93.19 208.49,96 205.94,97.98 202.87,99.14 L 219.93,125.14 208.11,125.14 208.11,125.14 Z M 186.2,76.33 L 186.2,92.36 C 188.09,92.52 189.54,92.6 190.54,92.6 194.82,92.6 197.95,91.99 199.93,90.78 201.91,89.58 202.91,87.23 202.91,83.73 202.91,80.9 201.84,78.91 199.72,77.78 197.59,76.66 194.24,76.09 189.67,76.09 188.57,76.09 187.41,76.17 186.2,76.33 Z M 186.2,76.33" />
    <path id="bezier21" stroke="none" fill="rgb(55, 73, 79)" d="M 257.73,125.14 L 253.51,113.44 233.73,113.44 229.72,125.14 218.33,125.14 241.34,66.64 245.83,66.64 269.03,125.14 257.73,125.14 Z M 243.58,84.29 L 236.65,105.6 250.52,105.6 243.58,84.29 Z M 243.58,84.29" />
    <path id="bezier22" stroke="none" fill="rgb(55, 73, 79)" d="M 274.53,125.14 L 274.53,67.43 284.77,67.43 284.77,125.14 274.53,125.14 Z M 274.53,125.14" />
    <path id="bezier23" stroke="none" fill="rgb(55, 73, 79)" d="M 333.84,125.93 L 305.83,89.41 305.83,125.18 295.98,125.18 295.98,67.43 300.9,67.43 328.16,102.25 328.16,67.43 338.01,67.43 338.01,125.93 333.84,125.93 Z M 333.84,125.93" />
    <path id="bezier24" stroke="none" fill="rgb(147, 100, 10)" d="M 368.47,74.52 L 368.47,125.14 360.59,125.14 360.59,74.52 342.23,74.52 342.23,67.43 387.65,67.43 387.65,74.52 368.47,74.52 Z M 368.47,74.52" />
    <path id="bezier25" stroke="none" fill="rgb(147, 100, 10)" d="M 417.19,125.14 L 413.21,112.96 391.74,112.96 387.49,125.14 378.66,125.14 402.1,66.64 404.19,66.64 425.94,125.14 417.19,125.14 Z M 402.77,81.76 L 393.83,107.17 410.97,107.17 402.77,81.76 Z M 402.77,81.76" />
    <path id="bezier26" stroke="none" fill="rgb(147, 100, 10)" d="M 437.87,102.92 L 437.87,125.14 429.99,125.14 429.99,67.43 C 435.95,67.16 439.55,67.03 440.78,67.03 457.54,67.03 465.91,72.64 465.91,83.85 465.91,96.83 458.51,103.31 443.7,103.31 442.8,103.31 440.86,103.18 437.87,102.92 Z M 437.87,74.52 L 437.87,95.83 C 441.2,96.09 442.96,96.22 443.14,96.22 452.92,96.22 457.8,92.38 457.8,84.68 457.8,77.64 452.59,74.12 442.16,74.12 441.11,74.12 439.68,74.25 437.87,74.52 Z M 437.87,74.52" />
    <path id="bezier27" stroke="none" fill="rgb(147, 100, 10)" d="M 480.84,102.92 L 480.84,125.14 472.96,125.14 472.96,67.43 C 478.92,67.16 482.52,67.03 483.75,67.03 500.51,67.03 508.89,72.64 508.89,83.85 508.89,96.83 501.48,103.31 486.67,103.31 485.78,103.31 483.83,103.18 480.84,102.92 Z M 480.84,74.52 L 480.84,95.83 C 484.17,96.09 485.93,96.22 486.12,96.22 495.89,96.22 500.77,92.38 500.77,84.68 500.77,77.64 495.56,74.12 485.13,74.12 484.08,74.12 482.65,74.25 480.84,74.52 Z M 480.84,74.52" />
    <path id="bezier28" stroke="none" fill="rgb(147, 100, 10)" d="M 523.81,74.52 L 523.81,90.55 542.88,90.55 542.88,97.25 523.81,97.25 523.81,118.05 549.97,118.05 549.97,125.14 515.93,125.14 515.93,67.43 550.4,67.43 550.4,74.52 523.81,74.52 Z M 523.81,74.52" />
    <path id="bezier29" stroke="none" fill="rgb(147, 100, 10)" d="M 589.15,125.14 L 573.75,100.36 C 571.99,100.36 569.21,100.23 565.4,99.96 L 565.4,125.14 557.52,125.14 557.52,67.43 C 557.81,67.43 559.85,67.33 563.65,67.13 567.44,66.93 570.21,66.84 571.94,66.84 585.81,66.84 592.74,72.35 592.74,83.38 592.74,87 591.62,90.27 589.39,93.17 587.16,96.07 584.51,97.88 581.43,98.59 L 598.18,125.14 589.15,125.14 589.15,125.14 Z M 565.4,74.52 L 565.4,93.27 C 567.29,93.53 569.13,93.66 570.92,93.66 575.64,93.66 579.08,92.9 581.24,91.38 583.39,89.85 584.47,87.14 584.47,83.22 584.47,79.99 583.31,77.67 581,76.25 578.69,74.83 575.04,74.12 570.05,74.12 569.26,74.12 567.71,74.25 565.4,74.52 Z M 565.4,74.52" />
    <path id="bezier30" stroke="none" fill="url(#gradient17eed1c0-bezier30)" d="M 55.39,2 C 55.61,2 55.82,2.01 56.03,2.1 56.11,2.16 56.19,2.23 56.26,2.29 56.27,2.3 56.28,2.31 56.29,2.32 56.31,2.36 56.34,2.39 56.36,2.43 56.49,2.71 56.59,3.08 56.64,3.34 69.99,62.77 108.21,83.79 108.21,120.19 108.21,149.24 84.66,172.8 55.6,172.8 26.55,172.8 3,149.25 3,120.19 3,84.38 48,54.31 54.32,2.94 54.69,2.01 54.94,2.12 55.39,2 Z M 55.76,74.43 C 29.86,74.43 8.74,95.55 8.74,121.45 8.74,147.35 29.86,168.47 55.76,168.47 81.66,168.47 102.78,147.35 102.78,121.45 102.78,95.55 81.66,74.43 55.76,74.43 Z M 55.76,74.43" />
    <path id="bezier31" stroke="none" fill="rgb(11, 30, 38)" d="M 33.36,108.37 L 25.69,108.37 25.69,135.49 C 28.14,135.66 30.7,135.82 33.36,135.96 L 33.36,108.37 Z M 33.36,108.37" />
    <path id="bezier32" stroke="none" fill="rgb(110, 126, 125)" d="M 41.03,136.29 L 41.03,104.27 41.03,96.56 33.36,96.56 33.36,109.81 33.36,135.99 C 35.83,136.11 38.38,136.21 41.03,136.29 Z M 41.03,136.29" />
    <path id="bezier33" stroke="none" fill="rgb(11, 30, 38)" d="M 48.69,136.5 L 48.69,102.29 41.03,102.29 41.03,136.3 C 43.51,136.38 46.07,136.45 48.69,136.5 Z M 48.69,136.5" />
    <path id="bezier34" stroke="none" fill="rgb(110, 126, 125)" d="M 56.36,136.58 L 56.36,92.32 48.69,92.32 48.69,97.72 48.69,136.48 C 51.19,136.54 53.75,136.58 56.36,136.58 Z M 56.36,136.58" />
    <path id="bezier35" stroke="none" fill="rgb(11, 30, 38)" d="M 56.91,136.58 C 59.34,136.58 61.7,136.56 64.02,136.51 L 64.02,106.01 64.02,87.26 56.36,87.26 56.36,94.88 56.36,136.58 C 56.54,136.58 56.72,136.58 56.91,136.58 Z M 56.91,136.58" />
    <path id="bezier36" stroke="none" fill="rgb(110, 126, 125)" d="M 71.69,136.27 L 71.69,102.98 64.02,102.98 64.02,136.52 C 66.65,136.47 69.21,136.38 71.69,136.27 Z M 71.69,136.27" />
    <path id="bezier37" stroke="none" fill="rgb(11, 30, 38)" d="M 79.36,135.97 L 79.36,109.92 79.36,97.13 71.69,97.13 71.69,105.75 71.69,136.33 C 74.33,136.23 76.89,136.11 79.36,135.97 Z M 79.36,135.97" />
    <path id="bezier38" stroke="none" fill="rgb(110, 126, 125)" d="M 87.02,135.53 L 87.02,110.93 79.36,110.93 79.36,136.01 C 82.02,135.86 84.59,135.7 87.02,135.53 Z M 87.02,135.53" />
    <path id="bezier39" stroke="rgb(11, 30, 38)" stroke-width="0.5" stroke-miterlimit="4" fill="none" d="M 71.82,97.28 L 69.71,99.77 69.71,99.78 69.71,103" />
    <path id="bezier40" stroke="rgb(110, 126, 125)" stroke-width="0.5" stroke-miterlimit="4" fill="none" d="M 48.81,92.44 L 46.7,94.92 46.7,94.97 46.7,102.28" />
    <path id="bezier41" stroke="rgb(110, 126, 125)" stroke-width="0.5" stroke-miterlimit="4" fill="none" d="M 33.51,96.69 L 31.33,99.21 31.33,99.29 31.33,108.37" />
    <path id="bezier42" stroke="rgb(11, 30, 38)" stroke-width="0.5" stroke-miterlimit="4" fill="none" d="M 56.48,87.4 L 54.28,89.93 54.28,90.01 54.28,92.33" />
    <path id="bezier43" stroke="rgb(11, 30, 38)" stroke-width="0.5" stroke-miterlimit="4" fill="none" d="M 25.82,108.5 L 23.69,111.08 23.69,111.14 23.69,134.54" />
    <path id="bezier44" stroke="none" fill="url(#gradient12a6efa0-bezier44)" d="M 99.21,122.32 C 67.82,130.75 47.41,130.75 12.91,122.32 12.82,147 33.25,165.4 56.06,165.65 77.5,165.89 99.12,149.75 99.21,122.32 Z M 56.06,164.91 L 56.06,165.65 C 79.93,165.65 99.39,146.19 99.39,122.32 99.39,98.45 79.93,78.99 56.06,78.98 32.19,78.99 12.73,98.45 12.72,122.32 12.73,146.19 32.19,165.65 56.06,165.65 L 56.06,164.91 56.06,164.17 C 44.53,164.17 34.07,159.47 26.49,151.89 18.9,144.3 14.21,133.84 14.21,122.32 14.21,110.79 18.9,100.33 26.49,92.75 34.07,85.17 44.53,80.47 56.06,80.47 67.58,80.47 78.04,85.17 85.63,92.75 93.21,100.33 97.91,110.79 97.91,122.32 97.91,133.84 93.21,144.3 85.63,151.89 78.04,159.47 67.58,164.17 56.06,164.17 L 56.06,164.91 Z M 56.06,164.91" />
</svg>
